<?xml version="1.0" encoding="utf-8"?>
<svg version="1.1" xmlns:xlink="http://www.w3.org/1999/xlink" width="70px" height="70px" xmlns="http://www.w3.org/2000/svg">
  <g transform="matrix(1 0 0 1 -685 -1257 )">
    <path d="M 30 32.0833333333333  L 30 43.75  L 40.8333333333333 37.9166666666667  L 30 32.0833333333333  Z M 24 28.4830729166667  L 46 16.81640625  L 46 41.5169270833333  L 24 53.18359375  L 24 28.4830729166667  Z M 56.46484375 47.44140625  C 58.6827256944444 43.6436631944444  59.7916666666667 39.4965277777778  59.7916666666667 35  C 59.7916666666667 30.5034722222222  58.6827256944444 26.3563368055556  56.46484375 22.55859375  C 54.2469618055556 18.7608506944444  51.2391493055556 15.7530381944444  47.44140625 13.53515625  C 43.6436631944444 11.3172743055556  39.4965277777778 10.2083333333333  35 10.2083333333333  C 30.5034722222222 10.2083333333333  26.3563368055556 11.3172743055556  22.55859375 13.53515625  C 18.7608506944444 15.7530381944444  15.7530381944444 18.7608506944444  13.53515625 22.55859375  C 11.3172743055556 26.3563368055556  10.2083333333333 30.5034722222222  10.2083333333333 35  C 10.2083333333333 39.4965277777778  11.3172743055556 43.6436631944444  13.53515625 47.44140625  C 15.7530381944444 51.2391493055556  18.7608506944444 54.2469618055556  22.55859375 56.46484375  C 26.3563368055556 58.6827256944444  30.5034722222222 59.7916666666667  35 59.7916666666667  C 39.4965277777778 59.7916666666667  43.6436631944444 58.6827256944444  47.44140625 56.46484375  C 51.2391493055556 54.2469618055556  54.2469618055556 51.2391493055556  56.46484375 47.44140625  Z M 65.3059895833333 17.431640625  C 68.4353298611111 22.7940538194444  70 28.6501736111111  70 35  C 70 41.3498263888889  68.4353298611111 47.2059461805556  65.3059895833333 52.568359375  C 62.1766493055556 57.9307725694444  57.9307725694444 62.1766493055556  52.568359375 65.3059895833333  C 47.2059461805556 68.4353298611111  41.3498263888889 70  35 70  C 28.6501736111111 70  22.7940538194444 68.4353298611111  17.431640625 65.3059895833333  C 12.0692274305556 62.1766493055556  7.82335069444445 57.9307725694444  4.69401041666667 52.568359375  C 1.56467013888889 47.2059461805556  0 41.3498263888889  0 35  C 0 28.6501736111111  1.56467013888889 22.7940538194444  4.69401041666667 17.431640625  C 7.82335069444445 12.0692274305556  12.0692274305556 7.82335069444444  17.431640625 4.69401041666666  C 22.7940538194444 1.56467013888888  28.6501736111111 0  35 0  C 41.3498263888889 0  47.2059461805556 1.56467013888888  52.568359375 4.69401041666666  C 57.9307725694444 7.82335069444444  62.1766493055556 12.0692274305556  65.3059895833333 17.431640625  Z " fill-rule="nonzero" fill="#1892c7" stroke="none" transform="matrix(1 0 0 1 685 1257 )" />
  </g>
</svg>