<?xml version="1.0" encoding="utf-8"?>
<svg version="1.1" xmlns:xlink="http://www.w3.org/1999/xlink" width="37px" height="30px" xmlns="http://www.w3.org/2000/svg">
  <g transform="matrix(1 0 0 1 -952 -367 )">
    <path d="M 31.6815365551425 17.1395167575994  C 31.696819496076 17.1706936866719  31.7044609665428 17.2174590802806  31 17.2798129384256  L 31 28.5035074045207  C 31.7044609665428 28.908807482463  31.5592730276745 29.2595479345284  31.268897149938 29.5557287607171  C 30.9785212722016 29.8519095869057  30.6346551011979 30  30.2372986369269 30  L 21.4343246592317 30  L 21.4343246592317 21.0210444271239  L 15.5656753407683 21.0210444271239  L 15.5656753407683 30  L 6.76270136307311 30  C 6.36534489880215 30  6.02147872779843 29.8519095869057  5.73110285006196 29.5557287607171  C 5.44072697232549 29.2595479345284  5.29553903345725 28.908807482463  6 28.5035074045207  L 6 17.2798129384256  C 5.29553903345725 17.2642244738893  5.29935976869062 17.240841777085  5.30700123915737 17.2096648480125  C 5.31464270962412 17.17848791894  5.3184634448575 17.1551052221356  5.3184634448575 17.1395167575994  L 18.5 6.05611847233047  L 31.6815365551425 17.1395167575994  Z M 36.9770755885998 15.1169134840218  C 36.9923585295333 15.3273577552611  36.938868236266 15.510522213562  36.816604708798 15.6664068589244  L 35.3952912019827 17.3967264224474  C 35.2730276745147 17.5370226032736  35.1125567947129 17.6227591582229  34.9138785625775 17.6539360872954  L 34.8451053283767 17.6539360872954  C 34.6464270962412 17.6539360872954  34.4859562164395 17.5993764614185  34.3636926889715 17.4902572096648  L 18.5 3.99844115354638  L 2.6363073110285 17.4902572096648  C 2.45291201982652 17.6149649259548  2.26951672862454 17.6695245518316  2.08612143742255 17.6539360872954  C 1.88744320528707 17.6227591582229  1.72697232548534 17.5370226032736  1.60470879801735 17.3967264224474  L 0.183395291201983 15.6664068589244  C 0.0611317637339942 15.510522213562  0.00764147046674933 15.3273577552611  0.0229244114002478 15.1169134840218  C 0.0382073523337465 14.9064692127825  0.122263527467988 14.7388932190179  0.275092936802974 14.614185502728  L 16.7577447335812 0.607950116913485  C 17.2467988434531 0.202650038971158  17.8275505989261 0  18.5 0  C 19.1724494010739 0  19.7532011565469 0.202650038971158  20.2422552664188 0.607950116913485  L 25.8358116480793 5.3780202650039  L 25.8358116480793 0.818394388152766  C 25.8358116480793 0.600155884645359  25.90458488228 0.420888542478565  26.0421313506815 0.280592361652379  C 26.179677819083 0.140296180826189  26.3554316398183 0.0701480904130947  26.5693928128872 0.0701480904130947  L 30.9708798017348 0.0701480904130947  C 31.1848409748038 0.0701480904130947  31.360594795539 0.140296180826189  31.4981412639405 0.280592361652379  C 31.635687732342 0.420888542478565  31.7044609665428 0.600155884645359  31.7044609665428 0.818394388152766  L 31.7044609665428 10.3585346843336  L 36.724907063197 14.614185502728  C 36.877736472532 14.7388932190179  36.9617926476663 14.9064692127825  36.9770755885998 15.1169134840218  Z " fill-rule="nonzero" fill="#808080" stroke="none" transform="matrix(1 0 0 1 952 367 )" />
  </g>
</svg>