<?xml version="1.0" encoding="utf-8"?>
<svg version="1.1" xmlns:xlink="http://www.w3.org/1999/xlink" width="24px" height="37px" xmlns="http://www.w3.org/2000/svg">
  <g transform="matrix(1 0 0 1 -705 -1146 )">
    <path d="M 16.37109375 8.62369791666667  C 16.95703125 9.23394097222222  17.25 9.95659722222222  17.25 10.7916666666667  C 17.25 11.0004340277778  17.17578125 11.1810980902778  17.02734375 11.3336588541667  C 16.87890625 11.4862196180556  16.703125 11.5625  16.5 11.5625  C 16.296875 11.5625  16.12109375 11.4862196180556  15.97265625 11.3336588541667  C 15.82421875 11.1810980902778  15.75 11.0004340277778  15.75 10.7916666666667  C 15.75 10.0529513888889  15.328125 9.48285590277778  14.484375 9.08138020833333  C 13.640625 8.67990451388889  12.8125 8.47916666666667  12 8.47916666666667  C 11.796875 8.47916666666667  11.62109375 8.40288628472222  11.47265625 8.25032552083333  C 11.32421875 8.09776475694444  11.25 7.91710069444444  11.25 7.70833333333333  C 11.25 7.49956597222222  11.32421875 7.31890190972222  11.47265625 7.16634114583333  C 11.62109375 7.01378038194444  11.796875 6.9375  12 6.9375  C 12.78125 6.9375  13.55859375 7.06597222222222  14.33203125 7.32291666666667  C 15.10546875 7.57986111111111  15.78515625 8.01345486111111  16.37109375 8.62369791666667  Z M 19.40625 15.1276041666667  C 20.46875 13.8589409722222  21 12.4136284722222  21 10.7916666666667  C 21 9.63541666666667  20.73046875 8.55946180555555  20.19140625 7.56380208333333  C 19.65234375 6.56814236111111  18.94921875 5.75314670138889  18.08203125 5.11881510416667  C 17.21484375 4.48448350694444  16.25390625 3.98665364583333  15.19921875 3.62532552083333  C 14.14453125 3.26399739583333  13.078125 3.08333333333333  12 3.08333333333333  C 10.921875 3.08333333333333  9.85546875 3.26399739583333  8.80078125 3.62532552083333  C 7.74609375 3.98665364583333  6.78515625 4.48448350694444  5.91796875 5.11881510416667  C 5.05078125 5.75314670138889  4.34765625 6.56814236111111  3.80859375 7.56380208333333  C 3.26953125 8.55946180555555  3 9.63541666666667  3 10.7916666666667  C 3 12.4136284722222  3.53125 13.8589409722222  4.59375 15.1276041666667  C 4.75 15.3042534722222  4.98828125 15.5692274305556  5.30859375 15.9225260416667  C 5.62890625 16.2758246527778  5.8671875 16.5407986111111  6.0234375 16.7174479166667  C 8.0234375 19.1744791666667  9.125 21.5672743055556  9.328125 23.8958333333333  L 14.671875 23.8958333333333  C 14.875 21.5672743055556  15.9765625 19.1744791666667  17.9765625 16.7174479166667  C 18.1328125 16.5407986111111  18.37109375 16.2758246527778  18.69140625 15.9225260416667  C 19.01171875 15.5692274305556  19.25 15.3042534722222  19.40625 15.1276041666667  Z M 22.95703125 6.34733072916667  C 23.65234375 7.72037760416667  24 9.20182291666667  24 10.7916666666667  C 24 13.2808159722222  23.1953125 15.4327256944444  21.5859375 17.2473958333333  C 20.8828125 18.0342881944444  20.30078125 18.7328559027778  19.83984375 19.3430989583333  C 19.37890625 19.9533420138889  18.9140625 20.7201605902778  18.4453125 21.6435546875  C 17.9765625 22.5669487847222  17.7109375 23.4301215277778  17.6484375 24.2330729166667  C 18.3828125 24.6827256944444  18.75 25.3411458333333  18.75 26.2083333333333  C 18.75 26.8025173611111  18.5546875 27.31640625  18.1640625 27.75  C 18.5546875 28.18359375  18.75 28.6974826388889  18.75 29.2916666666667  C 18.75 30.1267361111111  18.3984375 30.7771267361111  17.6953125 31.2428385416667  C 17.8984375 31.6121961805556  18 31.9895833333333  18 32.375  C 18 33.1137152777778  17.75390625 33.6838107638889  17.26171875 34.0852864583333  C 16.76953125 34.4867621527778  16.1640625 34.6875  15.4453125 34.6875  C 15.1328125 35.3940972222222  14.6640625 35.9561631944445  14.0390625 36.3736979166667  C 13.4140625 36.7912326388889  12.734375 37  12 37  C 11.265625 37  10.5859375 36.7912326388889  9.9609375 36.3736979166667  C 9.3359375 35.9561631944445  8.8671875 35.3940972222222  8.5546875 34.6875  C 7.8359375 34.6875  7.23046875 34.4867621527778  6.73828125 34.0852864583333  C 6.24609375 33.6838107638889  6 33.1137152777778  6 32.375  C 6 31.9895833333333  6.1015625 31.6121961805556  6.3046875 31.2428385416667  C 5.6015625 30.7771267361111  5.25 30.1267361111111  5.25 29.2916666666667  C 5.25 28.6974826388889  5.4453125 28.18359375  5.8359375 27.75  C 5.4453125 27.31640625  5.25 26.8025173611111  5.25 26.2083333333333  C 5.25 25.3411458333333  5.6171875 24.6827256944444  6.3515625 24.2330729166667  C 6.2890625 23.4301215277778  6.0234375 22.5669487847222  5.5546875 21.6435546875  C 5.0859375 20.7201605902778  4.62109375 19.9533420138889  4.16015625 19.3430989583333  C 3.69921875 18.7328559027778  3.1171875 18.0342881944444  2.4140625 17.2473958333333  C 0.8046875 15.4327256944444  0 13.2808159722222  0 10.7916666666667  C 0 9.20182291666667  0.34765625 7.72037760416667  1.04296875 6.34733072916667  C 1.73828125 4.97428385416667  2.65234375 3.83409288194444  3.78515625 2.9267578125  C 4.91796875 2.01942274305555  6.19921875 1.30479600694444  7.62890625 0.782877604166665  C 9.05859375 0.260959201388887  10.515625 0  12 0  C 13.484375 0  14.94140625 0.260959201388887  16.37109375 0.782877604166665  C 17.80078125 1.30479600694444  19.08203125 2.01942274305555  20.21484375 2.9267578125  C 21.34765625 3.83409288194444  22.26171875 4.97428385416667  22.95703125 6.34733072916667  Z " fill-rule="nonzero" fill="#596f74" stroke="none" transform="matrix(1 0 0 1 705 1146 )" />
  </g>
</svg>