<?xml version="1.0" encoding="utf-8"?>
<svg version="1.1" xmlns:xlink="http://www.w3.org/1999/xlink" width="24px" height="37px" xmlns="http://www.w3.org/2000/svg">
  <g transform="matrix(1 0 0 1 -977 -1147 )">
    <path d="M 16.2421875 16.693359375  C 17.4140625 15.4889322916667  18 14.0355902777778  18 12.3333333333333  C 18 10.6310763888889  17.4140625 9.177734375  16.2421875 7.97330729166667  C 15.0703125 6.76888020833333  13.65625 6.16666666666667  12 6.16666666666667  C 10.34375 6.16666666666667  8.9296875 6.76888020833333  7.7578125 7.97330729166667  C 6.5859375 9.177734375  6 10.6310763888889  6 12.3333333333333  C 6 14.0355902777778  6.5859375 15.4889322916667  7.7578125 16.693359375  C 8.9296875 17.8977864583333  10.34375 18.5  12 18.5  C 13.65625 18.5  15.0703125 17.8977864583333  16.2421875 16.693359375  Z M 20.484375 3.61328125  C 22.828125 6.02213541666667  24 8.92881944444444  24 12.3333333333333  C 24 14.0837673611111  23.7421875 15.5210503472222  23.2265625 16.6451822916667  L 14.6953125 35.2897135416667  C 14.4453125 35.8196614583333  14.07421875 36.2371961805556  13.58203125 36.5423177083333  C 13.08984375 36.8474392361111  12.5625 37  12 37  C 11.4375 37  10.91015625 36.8474392361111  10.41796875 36.5423177083333  C 9.92578125 36.2371961805556  9.5625 35.8196614583333  9.328125 35.2897135416667  L 0.7734375 16.6451822916667  C 0.2578125 15.5210503472222  0 14.0837673611111  0 12.3333333333333  C 0 8.92881944444444  1.171875 6.02213541666667  3.515625 3.61328125  C 5.859375 1.20442708333333  8.6875 0  12 0  C 15.3125 0  18.140625 1.20442708333333  20.484375 3.61328125  Z " fill-rule="nonzero" fill="#596f74" stroke="none" transform="matrix(1 0 0 1 977 1147 )" />
  </g>
</svg>