<?xml version="1.0" encoding="utf-8"?>
<svg version="1.1" xmlns:xlink="http://www.w3.org/1999/xlink" width="34px" height="43px" xmlns="http://www.w3.org/2000/svg">
  <g transform="matrix(1 0 0 1 -837 -1143 )">
    <path d="M 9.04332386363636 30.9422433035714  C 9.19625946969697 31.0942150297619  9.27272727272727 31.274181547619  9.27272727272727 31.4821428571429  L 9.27272727272727 33.0178571428571  C 9.27272727272727 33.225818452381  9.19625946969697 33.4057849702381  9.04332386363636 33.5577566964286  C 8.89038825757576 33.709728422619  8.7092803030303 33.7857142857143  8.5 33.7857142857143  L 6.95454545454546 33.7857142857143  C 6.74526515151515 33.7857142857143  6.5641571969697 33.709728422619  6.41122159090909 33.5577566964286  C 6.25828598484849 33.4057849702381  6.18181818181818 33.225818452381  6.18181818181818 33.0178571428571  L 6.18181818181818 31.4821428571429  C 6.18181818181818 31.274181547619  6.25828598484849 31.0942150297619  6.41122159090909 30.9422433035714  C 6.5641571969697 30.790271577381  6.74526515151515 30.7142857142857  6.95454545454546 30.7142857142857  L 8.5 30.7142857142857  C 8.7092803030303 30.7142857142857  8.89038825757576 30.790271577381  9.04332386363636 30.9422433035714  Z M 9.04332386363636 24.7993861607143  C 9.19625946969697 24.9513578869048  9.27272727272727 25.1313244047619  9.27272727272727 25.3392857142857  L 9.27272727272727 26.875  C 9.27272727272727 27.0829613095238  9.19625946969697 27.2629278273809  9.04332386363636 27.4148995535714  C 8.89038825757576 27.5668712797619  8.7092803030303 27.6428571428571  8.5 27.6428571428571  L 6.95454545454546 27.6428571428571  C 6.74526515151515 27.6428571428571  6.5641571969697 27.5668712797619  6.41122159090909 27.4148995535714  C 6.25828598484849 27.2629278273809  6.18181818181818 27.0829613095238  6.18181818181818 26.875  L 6.18181818181818 25.3392857142857  C 6.18181818181818 25.1313244047619  6.25828598484849 24.9513578869048  6.41122159090909 24.7993861607143  C 6.5641571969697 24.6474144345238  6.74526515151515 24.5714285714286  6.95454545454546 24.5714285714286  L 8.5 24.5714285714286  C 8.7092803030303 24.5714285714286  8.89038825757576 24.6474144345238  9.04332386363636 24.7993861607143  Z M 15.2251420454545 24.7993861607143  C 15.3780776515152 24.9513578869048  15.4545454545455 25.1313244047619  15.4545454545455 25.3392857142857  L 15.4545454545455 26.875  C 15.4545454545455 27.0829613095238  15.3780776515152 27.2629278273809  15.2251420454545 27.4148995535714  C 15.0722064393939 27.5668712797619  14.8910984848485 27.6428571428571  14.6818181818182 27.6428571428571  L 13.1363636363636 27.6428571428571  C 12.9270833333333 27.6428571428571  12.7459753787879 27.5668712797619  12.5930397727273 27.4148995535714  C 12.4401041666667 27.2629278273809  12.3636363636364 27.0829613095238  12.3636363636364 26.875  L 12.3636363636364 25.3392857142857  C 12.3636363636364 25.1313244047619  12.4401041666667 24.9513578869048  12.5930397727273 24.7993861607143  C 12.7459753787879 24.6474144345238  12.9270833333333 24.5714285714286  13.1363636363636 24.5714285714286  L 14.6818181818182 24.5714285714286  C 14.8910984848485 24.5714285714286  15.0722064393939 24.6474144345238  15.2251420454545 24.7993861607143  Z M 9.04332386363636 18.6565290178571  C 9.19625946969697 18.8085007440476  9.27272727272727 18.9884672619048  9.27272727272727 19.1964285714286  L 9.27272727272727 20.7321428571429  C 9.27272727272727 20.9401041666667  9.19625946969697 21.1200706845238  9.04332386363636 21.2720424107143  C 8.89038825757576 21.4240141369048  8.7092803030303 21.5  8.5 21.5  L 6.95454545454546 21.5  C 6.74526515151515 21.5  6.5641571969697 21.4240141369048  6.41122159090909 21.2720424107143  C 6.25828598484849 21.1200706845238  6.18181818181818 20.9401041666667  6.18181818181818 20.7321428571429  L 6.18181818181818 19.1964285714286  C 6.18181818181818 18.9884672619048  6.25828598484849 18.8085007440476  6.41122159090909 18.6565290178571  C 6.5641571969697 18.5045572916667  6.74526515151515 18.4285714285714  6.95454545454546 18.4285714285714  L 8.5 18.4285714285714  C 8.7092803030303 18.4285714285714  8.89038825757576 18.5045572916667  9.04332386363636 18.6565290178571  Z M 27.5887784090909 30.9422433035714  C 27.7417140151515 31.0942150297619  27.8181818181818 31.274181547619  27.8181818181818 31.4821428571429  L 27.8181818181818 33.0178571428571  C 27.8181818181818 33.225818452381  27.7417140151515 33.4057849702381  27.5887784090909 33.5577566964286  C 27.4358428030303 33.709728422619  27.2547348484848 33.7857142857143  27.0454545454545 33.7857142857143  L 25.5 33.7857142857143  C 25.2907196969697 33.7857142857143  25.1096117424242 33.709728422619  24.9566761363636 33.5577566964286  C 24.803740530303 33.4057849702381  24.7272727272727 33.225818452381  24.7272727272727 33.0178571428571  L 24.7272727272727 31.4821428571429  C 24.7272727272727 31.274181547619  24.803740530303 31.0942150297619  24.9566761363636 30.9422433035714  C 25.1096117424242 30.790271577381  25.2907196969697 30.7142857142857  25.5 30.7142857142857  L 27.0454545454545 30.7142857142857  C 27.2547348484848 30.7142857142857  27.4358428030303 30.790271577381  27.5887784090909 30.9422433035714  Z M 21.4069602272727 24.7993861607143  C 21.5598958333333 24.9513578869048  21.6363636363636 25.1313244047619  21.6363636363636 25.3392857142857  L 21.6363636363636 26.875  C 21.6363636363636 27.0829613095238  21.5598958333333 27.2629278273809  21.4069602272727 27.4148995535714  C 21.2540246212121 27.5668712797619  21.0729166666667 27.6428571428571  20.8636363636364 27.6428571428571  L 19.3181818181818 27.6428571428571  C 19.1089015151515 27.6428571428571  18.9277935606061 27.5668712797619  18.7748579545455 27.4148995535714  C 18.6219223484848 27.2629278273809  18.5454545454545 27.0829613095238  18.5454545454545 26.875  L 18.5454545454545 25.3392857142857  C 18.5454545454545 25.1313244047619  18.6219223484848 24.9513578869048  18.7748579545455 24.7993861607143  C 18.9277935606061 24.6474144345238  19.1089015151515 24.5714285714286  19.3181818181818 24.5714285714286  L 20.8636363636364 24.5714285714286  C 21.0729166666667 24.5714285714286  21.2540246212121 24.6474144345238  21.4069602272727 24.7993861607143  Z M 15.2251420454545 18.6565290178571  C 15.3780776515152 18.8085007440476  15.4545454545455 18.9884672619048  15.4545454545455 19.1964285714286  L 15.4545454545455 20.7321428571429  C 15.4545454545455 20.9401041666667  15.3780776515152 21.1200706845238  15.2251420454545 21.2720424107143  C 15.0722064393939 21.4240141369048  14.8910984848485 21.5  14.6818181818182 21.5  L 13.1363636363636 21.5  C 12.9270833333333 21.5  12.7459753787879 21.4240141369048  12.5930397727273 21.2720424107143  C 12.4401041666667 21.1200706845238  12.3636363636364 20.9401041666667  12.3636363636364 20.7321428571429  L 12.3636363636364 19.1964285714286  C 12.3636363636364 18.9884672619048  12.4401041666667 18.8085007440476  12.5930397727273 18.6565290178571  C 12.7459753787879 18.5045572916667  12.9270833333333 18.4285714285714  13.1363636363636 18.4285714285714  L 14.6818181818182 18.4285714285714  C 14.8910984848485 18.4285714285714  15.0722064393939 18.5045572916667  15.2251420454545 18.6565290178571  Z M 9.04332386363636 12.513671875  C 9.19625946969697 12.6656436011905  9.27272727272727 12.8456101190476  9.27272727272727 13.0535714285714  L 9.27272727272727 14.5892857142857  C 9.27272727272727 14.7972470238095  9.19625946969697 14.9772135416667  9.04332386363636 15.1291852678571  C 8.89038825757576 15.2811569940476  8.7092803030303 15.3571428571429  8.5 15.3571428571429  L 6.95454545454546 15.3571428571429  C 6.74526515151515 15.3571428571429  6.5641571969697 15.2811569940476  6.41122159090909 15.1291852678571  C 6.25828598484849 14.9772135416667  6.18181818181818 14.7972470238095  6.18181818181818 14.5892857142857  L 6.18181818181818 13.0535714285714  C 6.18181818181818 12.8456101190476  6.25828598484849 12.6656436011905  6.41122159090909 12.513671875  C 6.5641571969697 12.3617001488095  6.74526515151515 12.2857142857143  6.95454545454546 12.2857142857143  L 8.5 12.2857142857143  C 8.7092803030303 12.2857142857143  8.89038825757576 12.3617001488095  9.04332386363636 12.513671875  Z M 27.5887784090909 24.7993861607143  C 27.7417140151515 24.9513578869048  27.8181818181818 25.1313244047619  27.8181818181818 25.3392857142857  L 27.8181818181818 26.875  C 27.8181818181818 27.0829613095238  27.7417140151515 27.2629278273809  27.5887784090909 27.4148995535714  C 27.4358428030303 27.5668712797619  27.2547348484848 27.6428571428571  27.0454545454545 27.6428571428571  L 25.5 27.6428571428571  C 25.2907196969697 27.6428571428571  25.1096117424242 27.5668712797619  24.9566761363636 27.4148995535714  C 24.803740530303 27.2629278273809  24.7272727272727 27.0829613095238  24.7272727272727 26.875  L 24.7272727272727 25.3392857142857  C 24.7272727272727 25.1313244047619  24.803740530303 24.9513578869048  24.9566761363636 24.7993861607143  C 25.1096117424242 24.6474144345238  25.2907196969697 24.5714285714286  25.5 24.5714285714286  L 27.0454545454545 24.5714285714286  C 27.2547348484848 24.5714285714286  27.4358428030303 24.6474144345238  27.5887784090909 24.7993861607143  Z M 21.4069602272727 18.6565290178571  C 21.5598958333333 18.8085007440476  21.6363636363636 18.9884672619048  21.6363636363636 19.1964285714286  L 21.6363636363636 20.7321428571429  C 21.6363636363636 20.9401041666667  21.5598958333333 21.1200706845238  21.4069602272727 21.2720424107143  C 21.2540246212121 21.4240141369048  21.0729166666667 21.5  20.8636363636364 21.5  L 19.3181818181818 21.5  C 19.1089015151515 21.5  18.9277935606061 21.4240141369048  18.7748579545455 21.2720424107143  C 18.6219223484848 21.1200706845238  18.5454545454545 20.9401041666667  18.5454545454545 20.7321428571429  L 18.5454545454545 19.1964285714286  C 18.5454545454545 18.9884672619048  18.6219223484848 18.8085007440476  18.7748579545455 18.6565290178571  C 18.9277935606061 18.5045572916667  19.1089015151515 18.4285714285714  19.3181818181818 18.4285714285714  L 20.8636363636364 18.4285714285714  C 21.0729166666667 18.4285714285714  21.2540246212121 18.5045572916667  21.4069602272727 18.6565290178571  Z M 15.2251420454545 12.513671875  C 15.3780776515152 12.6656436011905  15.4545454545455 12.8456101190476  15.4545454545455 13.0535714285714  L 15.4545454545455 14.5892857142857  C 15.4545454545455 14.7972470238095  15.3780776515152 14.9772135416667  15.2251420454545 15.1291852678571  C 15.0722064393939 15.2811569940476  14.8910984848485 15.3571428571429  14.6818181818182 15.3571428571429  L 13.1363636363636 15.3571428571429  C 12.9270833333333 15.3571428571429  12.7459753787879 15.2811569940476  12.5930397727273 15.1291852678571  C 12.4401041666667 14.9772135416667  12.3636363636364 14.7972470238095  12.3636363636364 14.5892857142857  L 12.3636363636364 13.0535714285714  C 12.3636363636364 12.8456101190476  12.4401041666667 12.6656436011905  12.5930397727273 12.513671875  C 12.7459753787879 12.3617001488095  12.9270833333333 12.2857142857143  13.1363636363636 12.2857142857143  L 14.6818181818182 12.2857142857143  C 14.8910984848485 12.2857142857143  15.0722064393939 12.3617001488095  15.2251420454545 12.513671875  Z M 9.04332386363636 6.37081473214286  C 9.19625946969697 6.52278645833333  9.27272727272727 6.70275297619048  9.27272727272727 6.91071428571428  L 9.27272727272727 8.44642857142857  C 9.27272727272727 8.65438988095238  9.19625946969697 8.83435639880952  9.04332386363636 8.986328125  C 8.89038825757576 9.13829985119047  8.7092803030303 9.21428571428572  8.5 9.21428571428572  L 6.95454545454546 9.21428571428572  C 6.74526515151515 9.21428571428572  6.5641571969697 9.13829985119047  6.41122159090909 8.986328125  C 6.25828598484849 8.83435639880952  6.18181818181818 8.65438988095238  6.18181818181818 8.44642857142857  L 6.18181818181818 6.91071428571428  C 6.18181818181818 6.70275297619048  6.25828598484849 6.52278645833333  6.41122159090909 6.37081473214286  C 6.5641571969697 6.21884300595238  6.74526515151515 6.14285714285715  6.95454545454546 6.14285714285715  L 8.5 6.14285714285715  C 8.7092803030303 6.14285714285715  8.89038825757576 6.21884300595238  9.04332386363636 6.37081473214286  Z M 27.5887784090909 18.6565290178571  C 27.7417140151515 18.8085007440476  27.8181818181818 18.9884672619048  27.8181818181818 19.1964285714286  L 27.8181818181818 20.7321428571429  C 27.8181818181818 20.9401041666667  27.7417140151515 21.1200706845238  27.5887784090909 21.2720424107143  C 27.4358428030303 21.4240141369048  27.2547348484848 21.5  27.0454545454545 21.5  L 25.5 21.5  C 25.2907196969697 21.5  25.1096117424242 21.4240141369048  24.9566761363636 21.2720424107143  C 24.803740530303 21.1200706845238  24.7272727272727 20.9401041666667  24.7272727272727 20.7321428571429  L 24.7272727272727 19.1964285714286  C 24.7272727272727 18.9884672619048  24.803740530303 18.8085007440476  24.9566761363636 18.6565290178571  C 25.1096117424242 18.5045572916667  25.2907196969697 18.4285714285714  25.5 18.4285714285714  L 27.0454545454545 18.4285714285714  C 27.2547348484848 18.4285714285714  27.4358428030303 18.5045572916667  27.5887784090909 18.6565290178571  Z M 21.4069602272727 12.513671875  C 21.5598958333333 12.6656436011905  21.6363636363636 12.8456101190476  21.6363636363636 13.0535714285714  L 21.6363636363636 14.5892857142857  C 21.6363636363636 14.7972470238095  21.5598958333333 14.9772135416667  21.4069602272727 15.1291852678571  C 21.2540246212121 15.2811569940476  21.0729166666667 15.3571428571429  20.8636363636364 15.3571428571429  L 19.3181818181818 15.3571428571429  C 19.1089015151515 15.3571428571429  18.9277935606061 15.2811569940476  18.7748579545455 15.1291852678571  C 18.6219223484848 14.9772135416667  18.5454545454545 14.7972470238095  18.5454545454545 14.5892857142857  L 18.5454545454545 13.0535714285714  C 18.5454545454545 12.8456101190476  18.6219223484848 12.6656436011905  18.7748579545455 12.513671875  C 18.9277935606061 12.3617001488095  19.1089015151515 12.2857142857143  19.3181818181818 12.2857142857143  L 20.8636363636364 12.2857142857143  C 21.0729166666667 12.2857142857143  21.2540246212121 12.3617001488095  21.4069602272727 12.513671875  Z M 15.2251420454545 6.37081473214286  C 15.3780776515152 6.52278645833333  15.4545454545455 6.70275297619048  15.4545454545455 6.91071428571428  L 15.4545454545455 8.44642857142857  C 15.4545454545455 8.65438988095238  15.3780776515152 8.83435639880952  15.2251420454545 8.986328125  C 15.0722064393939 9.13829985119047  14.8910984848485 9.21428571428572  14.6818181818182 9.21428571428572  L 13.1363636363636 9.21428571428572  C 12.9270833333333 9.21428571428572  12.7459753787879 9.13829985119047  12.5930397727273 8.986328125  C 12.4401041666667 8.83435639880952  12.3636363636364 8.65438988095238  12.3636363636364 8.44642857142857  L 12.3636363636364 6.91071428571428  C 12.3636363636364 6.70275297619048  12.4401041666667 6.52278645833333  12.5930397727273 6.37081473214286  C 12.7459753787879 6.21884300595238  12.9270833333333 6.14285714285715  13.1363636363636 6.14285714285715  L 14.6818181818182 6.14285714285715  C 14.8910984848485 6.14285714285715  15.0722064393939 6.21884300595238  15.2251420454545 6.37081473214286  Z M 27.5887784090909 12.513671875  C 27.7417140151515 12.6656436011905  27.8181818181818 12.8456101190476  27.8181818181818 13.0535714285714  L 27.8181818181818 14.5892857142857  C 27.8181818181818 14.7972470238095  27.7417140151515 14.9772135416667  27.5887784090909 15.1291852678571  C 27.4358428030303 15.2811569940476  27.2547348484848 15.3571428571429  27.0454545454545 15.3571428571429  L 25.5 15.3571428571429  C 25.2907196969697 15.3571428571429  25.1096117424242 15.2811569940476  24.9566761363636 15.1291852678571  C 24.803740530303 14.9772135416667  24.7272727272727 14.7972470238095  24.7272727272727 14.5892857142857  L 24.7272727272727 13.0535714285714  C 24.7272727272727 12.8456101190476  24.803740530303 12.6656436011905  24.9566761363636 12.513671875  C 25.1096117424242 12.3617001488095  25.2907196969697 12.2857142857143  25.5 12.2857142857143  L 27.0454545454545 12.2857142857143  C 27.2547348484848 12.2857142857143  27.4358428030303 12.3617001488095  27.5887784090909 12.513671875  Z M 21.4069602272727 6.37081473214286  C 21.5598958333333 6.52278645833333  21.6363636363636 6.70275297619048  21.6363636363636 6.91071428571428  L 21.6363636363636 8.44642857142857  C 21.6363636363636 8.65438988095238  21.5598958333333 8.83435639880952  21.4069602272727 8.986328125  C 21.2540246212121 9.13829985119047  21.0729166666667 9.21428571428572  20.8636363636364 9.21428571428572  L 19.3181818181818 9.21428571428572  C 19.1089015151515 9.21428571428572  18.9277935606061 9.13829985119047  18.7748579545455 8.986328125  C 18.6219223484848 8.83435639880952  18.5454545454545 8.65438988095238  18.5454545454545 8.44642857142857  L 18.5454545454545 6.91071428571428  C 18.5454545454545 6.70275297619048  18.6219223484848 6.52278645833333  18.7748579545455 6.37081473214286  C 18.9277935606061 6.21884300595238  19.1089015151515 6.14285714285715  19.3181818181818 6.14285714285715  L 20.8636363636364 6.14285714285715  C 21.0729166666667 6.14285714285715  21.2540246212121 6.21884300595238  21.4069602272727 6.37081473214286  Z M 27.5887784090909 6.37081473214286  C 27.7417140151515 6.52278645833333  27.8181818181818 6.70275297619048  27.8181818181818 6.91071428571428  L 27.8181818181818 8.44642857142857  C 27.8181818181818 8.65438988095238  27.7417140151515 8.83435639880952  27.5887784090909 8.986328125  C 27.4358428030303 9.13829985119047  27.2547348484848 9.21428571428572  27.0454545454545 9.21428571428572  L 25.5 9.21428571428572  C 25.2907196969697 9.21428571428572  25.1096117424242 9.13829985119047  24.9566761363636 8.986328125  C 24.803740530303 8.83435639880952  24.7272727272727 8.65438988095238  24.7272727272727 8.44642857142857  L 24.7272727272727 6.91071428571428  C 24.7272727272727 6.70275297619048  24.803740530303 6.52278645833333  24.9566761363636 6.37081473214286  C 25.1096117424242 6.21884300595238  25.2907196969697 6.14285714285715  25.5 6.14285714285715  L 27.0454545454545 6.14285714285715  C 27.2547348484848 6.14285714285715  27.4358428030303 6.21884300595238  27.5887784090909 6.37081473214286  Z M 21.6363636363636 34.5535714285714  L 21.6363636363636 39.9285714285714  L 31 39.9285714285714  L 31 3  L 3 3  L 3 39.9285714285714  L 12.3636363636364 39.9285714285714  L 12.3636363636364 34.5535714285714  C 12.3636363636364 34.3456101190476  12.4401041666667 34.1656436011905  12.5930397727273 34.013671875  C 12.7459753787879 33.8617001488095  12.9270833333333 33.7857142857143  13.1363636363636 33.7857142857143  L 20.8636363636364 33.7857142857143  C 21.0729166666667 33.7857142857143  21.2540246212121 33.8617001488095  21.4069602272727 34.013671875  C 21.5598958333333 34.1656436011905  21.6363636363636 34.3456101190476  21.6363636363636 34.5535714285714  Z M 33.5411931818182 0.45591517857143  C 33.8470643939394 0.759858630952375  34 1.11979166666667  34 1.53571428571429  L 34 41.4642857142857  C 34 41.8802083333333  33.8470643939394 42.2401413690476  33.5411931818182 42.5440848214286  C 33.235321969697 42.8480282738095  32.8731060606061 43  32.4545454545455 43  L 1.54545454545455 43  C 1.12689393939394 43  0.76467803030303 42.8480282738095  0.458806818181818 42.5440848214286  C 0.152935606060606 42.2401413690476  0 41.8802083333333  0 41.4642857142857  L 0 1.53571428571429  C 0 1.11979166666667  0.152935606060606 0.759858630952375  0.458806818181818 0.45591517857143  C 0.76467803030303 0.15197172619048  1.12689393939394 0  1.54545454545455 0  L 32.4545454545455 0  C 32.8731060606061 0  33.235321969697 0.15197172619048  33.5411931818182 0.45591517857143  Z " fill-rule="nonzero" fill="#596f74" stroke="none" transform="matrix(1 0 0 1 837 1143 )" />
  </g>
</svg>