<?xml version="1.0" encoding="utf-8"?>
<svg version="1.1" xmlns:xlink="http://www.w3.org/1999/xlink" width="59px" height="51px" xmlns="http://www.w3.org/2000/svg">
  <g transform="matrix(1 0 0 1 -570 -1149 )">
    <path d="M 19.8367745535714 18.2451171875  C 20.6598772321429 19.0751953125  21.0714285714286 20.0768229166667  21.0714285714286 21.25  C 21.0714285714286 22.4231770833333  20.6598772321429 23.4248046875  19.8367745535714 24.2548828125  C 19.013671875 25.0849609375  18.0204613095238 25.5  16.8571428571429 25.5  C 15.6938244047619 25.5  14.7006138392857 25.0849609375  13.8775111607143 24.2548828125  C 13.0544084821429 23.4248046875  12.6428571428571 22.4231770833333  12.6428571428571 21.25  C 12.6428571428571 20.0768229166667  13.0544084821429 19.0751953125  13.8775111607143 18.2451171875  C 14.7006138392857 17.4150390625  15.6938244047619 17  16.8571428571429 17  C 18.0204613095238 17  19.013671875 17.4150390625  19.8367745535714 18.2451171875  Z M 32.4796316964286 18.2451171875  C 33.302734375 19.0751953125  33.7142857142857 20.0768229166667  33.7142857142857 21.25  C 33.7142857142857 22.4231770833333  33.302734375 23.4248046875  32.4796316964286 24.2548828125  C 31.6565290178571 25.0849609375  30.663318452381 25.5  29.5 25.5  C 28.3366815476191 25.5  27.3434709821429 25.0849609375  26.5203683035714 24.2548828125  C 25.697265625 23.4248046875  25.2857142857143 22.4231770833333  25.2857142857143 21.25  C 25.2857142857143 20.0768229166667  25.697265625 19.0751953125  26.5203683035714 18.2451171875  C 27.3434709821429 17.4150390625  28.3366815476191 17  29.5 17  C 30.663318452381 17  31.6565290178571 17.4150390625  32.4796316964286 18.2451171875  Z M 45.1224888392857 18.2451171875  C 45.9455915178571 19.0751953125  46.3571428571429 20.0768229166667  46.3571428571429 21.25  C 46.3571428571429 22.4231770833333  45.9455915178571 23.4248046875  45.1224888392857 24.2548828125  C 44.2993861607143 25.0849609375  43.3061755952381 25.5  42.1428571428571 25.5  C 40.9795386904762 25.5  39.986328125 25.0849609375  39.1632254464286 24.2548828125  C 38.3401227678571 23.4248046875  37.9285714285714 22.4231770833333  37.9285714285714 21.25  C 37.9285714285714 20.0768229166667  38.3401227678571 19.0751953125  39.1632254464286 18.2451171875  C 39.986328125 17.4150390625  40.9795386904762 17  42.1428571428571 17  C 43.3061755952381 17  44.2993861607143 17.4150390625  45.1224888392857 18.2451171875  Z M 42.060546875 6.5576171875  C 38.1645275297619 5.01920572916666  33.9776785714286 4.25  29.5 4.25  C 25.0223214285714 4.25  20.8354724702381 5.01920572916666  16.939453125 6.5576171875  C 13.0434337797619 8.09602864583333  9.94856770833333 10.1712239583333  7.65485491071429 12.783203125  C 5.36114211309524 15.3951822916667  4.21428571428571 18.2174479166667  4.21428571428571 21.25  C 4.21428571428571 23.7291666666667  4.99897693452381 26.0921223958333  6.568359375 28.3388671875  C 8.13774181547619 30.5856119791667  10.3491443452381 32.5279947916667  13.2025669642857 34.166015625  L 16.0669642857143 35.826171875  L 15.1780133928571 39.013671875  C 14.6512276785714 41.0279947916667  13.8829985119048 42.931640625  12.8733258928571 44.724609375  C 16.2096354166667 43.330078125  19.2276785714286 41.4375  21.9274553571429 39.046875  L 23.3431919642857 37.78515625  L 25.2198660714286 37.984375  C 26.734375 38.1614583333333  28.1610863095238 38.25  29.5 38.25  C 33.9776785714286 38.25  38.1645275297619 37.4807942708333  42.060546875 35.9423828125  C 45.9565662202381 34.4039713541667  49.0514322916667 32.3287760416667  51.3451450892857 29.716796875  C 53.6388578869048 27.1048177083333  54.7857142857143 24.2825520833333  54.7857142857143 21.25  C 54.7857142857143 18.2174479166667  53.6388578869048 15.3951822916667  51.3451450892857 12.783203125  C 49.0514322916667 10.1712239583333  45.9565662202381 8.09602864583333  42.060546875 6.5576171875  Z M 56.6623883928571 12.9990234375  C 58.2207961309524 15.6220703125  59 18.3723958333333  59 21.25  C 59 25.1015625  57.6830357142857 28.6598307291667  55.0491071428571 31.9248046875  C 52.4151785714286 35.1897786458333  48.8374255952381 37.7685546875  44.3158482142857 39.6611328125  C 39.7942708333333 41.5537109375  34.8556547619048 42.5  29.5 42.5  C 27.9635416666667 42.5  26.3722098214286 42.4114583333333  24.7260044642857 42.234375  C 20.3800223214286 46.1080729166667  15.3316592261905 48.7864583333333  9.58091517857143 50.26953125  C 8.5053943452381 50.5794270833333  7.25427827380952 50.8229166666667  5.82756696428571 51  L 5.66294642857143 51  C 5.33370535714286 51  5.03738839285714 50.8837890625  4.77399553571429 50.6513671875  C 4.51060267857143 50.4189453125  4.33500744047619 50.1145833333333  4.24720982142857 49.73828125  L 4.24720982142857 49.705078125  C 4.18136160714286 49.6165364583333  4.17587425595238 49.4837239583333  4.23074776785714 49.306640625  C 4.28562127976191 49.1295572916667  4.30757068452381 49.0188802083333  4.29659598214286 48.974609375  C 4.28562127976191 48.9303385416667  4.33500744047619 48.8251953125  4.44475446428571 48.6591796875  L 4.64229910714286 48.3603515625  C 4.64229910714286 48.3603515625  4.71912202380952 48.2662760416667  4.87276785714286 48.078125  C 5.02641369047619 47.8899739583333  5.11421130952381 47.7903645833333  5.13616071428571 47.779296875  C 5.28980654761905 47.6022135416667  5.63002232142857 47.2203776041667  6.15680803571429 46.6337890625  C 6.68359375 46.0472005208333  7.06222098214286 45.6266276041667  7.29268973214286 45.3720703125  C 7.52315848214286 45.1175130208333  7.86337425595238 44.6803385416667  8.31333705357143 44.060546875  C 8.76329985119048 43.4407552083333  9.11997767857143 42.8763020833333  9.38337053571429 42.3671875  C 9.64676339285714 41.8580729166667  9.94308035714286 41.205078125  10.2723214285714 40.408203125  C 10.6015625 39.611328125  10.8869047619048 38.7701822916667  11.1283482142857 37.884765625  C 7.68229166666667 35.9147135416667  4.96605282738095 33.4798177083333  2.97963169642857 30.580078125  C 0.99321056547619 27.6803385416667  0 24.5703125  0 21.25  C 0 18.3723958333333  0.779203869047619 15.6220703125  2.33761160714286 12.9990234375  C 3.8960193452381 10.3759765625  5.9921875 8.11263020833333  8.62611607142857 6.208984375  C 11.2600446428571 4.30533854166666  14.3988095238095 2.79459635416666  18.0424107142857 1.6767578125  C 21.6860119047619 0.558919270833331  25.5052083333333 0  29.5 0  C 33.4947916666667 0  37.3139880952381 0.558919270833331  40.9575892857143 1.6767578125  C 44.6011904761905 2.79459635416666  47.7399553571429 4.30533854166666  50.3738839285714 6.208984375  C 53.0078125 8.11263020833333  55.1039806547619 10.3759765625  56.6623883928571 12.9990234375  Z " fill-rule="nonzero" fill="#1892c7" stroke="none" transform="matrix(1 0 0 1 570 1149 )" />
  </g>
</svg>