<?xml version="1.0" encoding="utf-8"?>
<svg version="1.1" xmlns:xlink="http://www.w3.org/1999/xlink" width="96px" height="148px" xmlns="http://www.w3.org/2000/svg">
  <g transform="matrix(1 0 0 1 -733 -575 )">
    <path d="M 65.484375 34.4947916666667  C 67.828125 36.9357638888889  69 39.8263888888889  69 43.1666666666667  C 69 44.0017361111111  68.703125 44.7243923611111  68.109375 45.3346354166667  C 67.515625 45.9448784722222  66.8125 46.25  66 46.25  C 65.1875 46.25  64.484375 45.9448784722222  63.890625 45.3346354166667  C 63.296875 44.7243923611111  63 44.0017361111111  63 43.1666666666667  C 63 40.2118055555556  61.3125 37.9314236111111  57.9375 36.3255208333333  C 54.5625 34.7196180555556  51.25 33.9166666666667  48 33.9166666666667  C 47.1875 33.9166666666667  46.484375 33.6115451388889  45.890625 33.0013020833333  C 45.296875 32.3910590277778  45 31.6684027777778  45 30.8333333333333  C 45 29.9982638888889  45.296875 29.2756076388889  45.890625 28.6653645833333  C 46.484375 28.0551215277778  47.1875 27.75  48 27.75  C 51.125 27.75  54.234375 28.2638888888889  57.328125 29.2916666666667  C 60.421875 30.3194444444444  63.140625 32.0538194444444  65.484375 34.4947916666667  Z M 77.625 60.5104166666667  C 81.875 55.4357638888889  84 49.6545138888889  84 43.1666666666667  C 84 38.5416666666667  82.921875 34.2378472222222  80.765625 30.2552083333333  C 78.609375 26.2725694444444  75.796875 23.0125868055556  72.328125 20.4752604166667  C 68.859375 17.9379340277778  65.015625 15.9466145833333  60.796875 14.5013020833333  C 56.578125 13.0559895833333  52.3125 12.3333333333333  48 12.3333333333333  C 43.6875 12.3333333333333  39.421875 13.0559895833333  35.203125 14.5013020833333  C 30.984375 15.9466145833333  27.140625 17.9379340277778  23.671875 20.4752604166667  C 20.203125 23.0125868055556  17.390625 26.2725694444444  15.234375 30.2552083333333  C 13.078125 34.2378472222222  12 38.5416666666667  12 43.1666666666667  C 12 49.6545138888889  14.125 55.4357638888889  18.375 60.5104166666667  C 19 61.2170138888889  19.953125 62.2769097222222  21.234375 63.6901041666667  C 22.515625 65.1032986111111  23.46875 66.1631944444444  24.09375 66.8697916666667  C 32.09375 76.6979166666667  36.5 86.2690972222222  37.3125 95  L 58.6875 95  C 59.5 86.2690972222222  63.90625 76.6979166666667  71.90625 66.8697916666667  C 72.53125 66.1631944444444  73.484375 65.1032986111111  74.765625 63.6901041666667  C 76.046875 62.2769097222222  77 61.2170138888889  77.625 60.5104166666667  Z M 91.828125 25.3893229166667  C 94.609375 30.8815104166667  96 36.8072916666667  96 43.1666666666667  C 96 53.1232638888889  92.78125 61.7309027777778  86.34375 68.9895833333333  C 83.53125 72.1371527777778  81.203125 74.9314236111111  79.359375 77.3723958333333  C 77.515625 79.8133680555555  75.65625 82.8806423611111  73.78125 86.57421875  C 71.90625 90.2677951388889  70.84375 93.7204861111111  70.59375 96.9322916666667  C 73.53125 98.7309027777778  75 101.364583333333  75 104.833333333333  C 75 107.210069444444  74.21875 109.265625  72.65625 111  C 74.21875 112.734375  75 114.789930555556  75 117.166666666667  C 75 120.506944444444  73.59375 123.108506944444  70.78125 124.971354166667  C 71.59375 126.448784722222  72 127.958333333333  72 129.5  C 72 132.454861111111  71.015625 134.735243055556  69.046875 136.341145833333  C 67.078125 137.947048611111  64.65625 138.75  61.78125 138.75  C 60.53125 141.576388888889  58.65625 143.824652777778  56.15625 145.494791666667  C 53.65625 147.164930555556  50.9375 148  48 148  C 45.0625 148  42.34375 147.164930555556  39.84375 145.494791666667  C 37.34375 143.824652777778  35.46875 141.576388888889  34.21875 138.75  C 31.34375 138.75  28.921875 137.947048611111  26.953125 136.341145833333  C 24.984375 134.735243055556  24 132.454861111111  24 129.5  C 24 127.958333333333  24.40625 126.448784722222  25.21875 124.971354166667  C 22.40625 123.108506944444  21 120.506944444444  21 117.166666666667  C 21 114.789930555556  21.78125 112.734375  23.34375 111  C 21.78125 109.265625  21 107.210069444444  21 104.833333333333  C 21 101.364583333333  22.46875 98.7309027777778  25.40625 96.9322916666667  C 25.15625 93.7204861111111  24.09375 90.2677951388889  22.21875 86.57421875  C 20.34375 82.8806423611111  18.484375 79.8133680555555  16.640625 77.3723958333333  C 14.796875 74.9314236111111  12.46875 72.1371527777778  9.65625 68.9895833333333  C 3.21875 61.7309027777778  0 53.1232638888889  0 43.1666666666667  C 0 36.8072916666667  1.390625 30.8815104166667  4.171875 25.3893229166667  C 6.953125 19.8971354166667  10.609375 15.3363715277778  15.140625 11.70703125  C 19.671875 8.07769097222221  24.796875 5.21918402777776  30.515625 3.13151041666666  C 36.234375 1.04383680555555  42.0625 0  48 0  C 53.9375 0  59.765625 1.04383680555555  65.484375 3.13151041666666  C 71.203125 5.21918402777776  76.328125 8.07769097222221  80.859375 11.70703125  C 85.390625 15.3363715277778  89.046875 19.8971354166667  91.828125 25.3893229166667  Z " fill-rule="nonzero" fill="#596f74" stroke="none" transform="matrix(1 0 0 1 733 575 )" />
  </g>
</svg>