<?xml version="1.0" encoding="utf-8"?>
<svg version="1.1" xmlns:xlink="http://www.w3.org/1999/xlink" width="20px" height="28px" xmlns="http://www.w3.org/2000/svg">
  <g transform="matrix(1 0 0 1 -666 -1370 )">
    <path d="M 20 3.99503722084367  C 20 4.29611248966088  19.8777348777349 4.55665839536807  19.6332046332046 4.77667493796526  L 9.38223938223938 14  L 19.6332046332046 23.2233250620347  C 19.8777348777349 23.4433416046319  20 23.7038875103391  20 24.0049627791563  C 20 24.3060380479735  19.8777348777349 24.5665839536807  19.6332046332046 24.7866004962779  L 16.4285714285714 27.6699751861042  C 16.1840411840412 27.8899917287014  15.8944658944659 28  15.5598455598456 28  C 15.2252252252252 28  14.9356499356499 27.8899917287014  14.6911196911197 27.6699751861042  L 0.366795366795367 14.7816377171216  C 0.122265122265122 14.5616211745244  0 14.3010752688172  0 14  C 0 13.6989247311828  0.122265122265122 13.4383788254756  0.366795366795367 13.2183622828784  L 14.6911196911197 0.330024813895781  C 14.9356499356499 0.110008271298593  15.2252252252252 0  15.5598455598456 0  C 15.8944658944659 0  16.1840411840412 0.110008271298593  16.4285714285714 0.330024813895781  L 19.6332046332046 3.21339950372208  C 19.8777348777349 3.43341604631927  20 3.69396195202646  20 3.99503722084367  Z " fill-rule="nonzero" fill="#a1a1a1" stroke="none" transform="matrix(1 0 0 1 666 1370 )" />
  </g>
</svg>