<?xml version="1.0" encoding="utf-8"?>
<svg version="1.1" xmlns:xlink="http://www.w3.org/1999/xlink" width="27px" height="27px" xmlns="http://www.w3.org/2000/svg">
  <g transform="matrix(1 0 0 1 -761 -1371 )">
    <path d="M 17.8681640625 3.146484375  C 16.4794921875 2.548828125  15.0234375 2.25  13.5 2.25  C 11.9765625 2.25  10.5205078125 2.548828125  9.1318359375 3.146484375  C 7.7431640625 3.744140625  6.5478515625 4.5439453125  5.5458984375 5.5458984375  C 4.5439453125 6.5478515625  3.744140625 7.7431640625  3.146484375 9.1318359375  C 2.548828125 10.5205078125  2.25 11.9765625  2.25 13.5  C 2.25 15.0234375  2.548828125 16.4794921875  3.146484375 17.8681640625  C 3.744140625 19.2568359375  4.5439453125 20.4521484375  5.5458984375 21.4541015625  C 6.5478515625 22.4560546875  7.7431640625 23.255859375  9.1318359375 23.853515625  C 10.5205078125 24.451171875  11.9765625 24.75  13.5 24.75  C 15.0234375 24.75  16.4794921875 24.451171875  17.8681640625 23.853515625  C 19.2568359375 23.255859375  20.4521484375 22.4560546875  21.4541015625 21.4541015625  C 22.4560546875 20.4521484375  23.255859375 19.2568359375  23.853515625 17.8681640625  C 24.451171875 16.4794921875  24.75 15.0234375  24.75 13.5  C 24.75 11.9765625  24.451171875 10.5205078125  23.853515625 9.1318359375  C 23.255859375 7.7431640625  22.4560546875 6.5478515625  21.4541015625 5.5458984375  C 20.4521484375 4.5439453125  19.2568359375 3.744140625  17.8681640625 3.146484375  Z M 25.189453125 6.7236328125  C 26.396484375 8.7919921875  27 11.05078125  27 13.5  C 27 15.94921875  26.396484375 18.2080078125  25.189453125 20.2763671875  C 23.982421875 22.3447265625  22.3447265625 23.982421875  20.2763671875 25.189453125  C 18.2080078125 26.396484375  15.94921875 27  13.5 27  C 11.05078125 27  8.7919921875 26.396484375  6.7236328125 25.189453125  C 4.6552734375 23.982421875  3.017578125 22.3447265625  1.810546875 20.2763671875  C 0.603515625 18.2080078125  0 15.94921875  0 13.5  C 0 11.05078125  0.603515625 8.7919921875  1.810546875 6.7236328125  C 3.017578125 4.6552734375  4.6552734375 3.017578125  6.7236328125 1.810546875  C 8.7919921875 0.603515624999998  11.05078125 0  13.5 0  C 15.94921875 0  18.2080078125 0.603515624999998  20.2763671875 1.810546875  C 22.3447265625 3.017578125  23.982421875 4.6552734375  25.189453125 6.7236328125  Z " fill-rule="nonzero" fill="#a1a1a1" stroke="none" transform="matrix(1 0 0 1 761 1371 )" />
  </g>
</svg>