<?xml version="1.0" encoding="utf-8"?>
<svg version="1.1" xmlns:xlink="http://www.w3.org/1999/xlink" width="29px" height="29px" xmlns="http://www.w3.org/2000/svg">
  <g transform="matrix(1 0 0 1 -866 -1370 )">
    <path d="M 25.3955965909091 3.60440340909091  C 24.7502367424242 2.95904356060606  23.9744318181818 2.63636363636364  23.0681818181818 3  L 5.93181818181818 3  C 5.02556818181818 2.63636363636364  4.24976325757576 2.95904356060606  3.60440340909091 3.60440340909091  C 2.95904356060606 4.24976325757576  2.63636363636364 5.02556818181818  3 5.93181818181818  L 3 23.0681818181818  C 2.63636363636364 23.9744318181818  2.95904356060606 24.7502367424242  3.60440340909091 25.3955965909091  C 4.24976325757576 26.0409564393939  5.02556818181818 26.3636363636364  5.93181818181818 26  L 23.0681818181818 26  C 23.9744318181818 26.3636363636364  24.7502367424242 26.0409564393939  25.3955965909091 25.3955965909091  C 26.0409564393939 24.7502367424242  26.3636363636364 23.9744318181818  26 23.0681818181818  L 26 5.93181818181818  C 26.3636363636364 5.02556818181818  26.0409564393939 4.24976325757576  25.3955965909091 3.60440340909091  Z M 27.2595880681818 1.74041193181818  C 28.4198626893939 2.9006865530303  29 4.29782196969697  29 5.93181818181818  L 29 23.0681818181818  C 29 24.702178030303  28.4198626893939 26.0993134469697  27.2595880681818 27.2595880681818  C 26.0993134469697 28.4198626893939  24.702178030303 29  23.0681818181818 29  L 5.93181818181818 29  C 4.29782196969697 29  2.9006865530303 28.4198626893939  1.74041193181818 27.2595880681818  C 0.580137310606061 26.0993134469697  0 24.702178030303  0 23.0681818181818  L 0 5.93181818181818  C 0 4.29782196969697  0.580137310606061 2.9006865530303  1.74041193181818 1.74041193181818  C 2.9006865530303 0.580137310606058  4.29782196969697 0  5.93181818181818 0  L 23.0681818181818 0  C 24.702178030303 0  26.0993134469697 0.580137310606058  27.2595880681818 1.74041193181818  Z " fill-rule="nonzero" fill="#a1a1a1" stroke="none" transform="matrix(1 0 0 1 866 1370 )" />
  </g>
</svg>