<?xml version="1.0" encoding="utf-8"?>
<svg version="1.1" xmlns:xlink="http://www.w3.org/1999/xlink" width="141px" height="141px" xmlns="http://www.w3.org/2000/svg">
  <defs>
    <filter x="532px" y="858px" width="141px" height="141px" filterUnits="userSpaceOnUse" id="filter2">
      <feOffset dx="5" dy="5" in="SourceAlpha" result="shadowOffsetInner" />
      <feGaussianBlur stdDeviation="2.5" in="shadowOffsetInner" result="shadowGaussian" />
      <feComposite in2="shadowGaussian" operator="atop" in="SourceAlpha" result="shadowComposite" />
      <feColorMatrix type="matrix" values="0 0 0 0 0  0 0 0 0 0  0 0 0 0 0  0 0 0 0.349019607843137 0  " in="shadowComposite" />
    </filter>
    <g id="widget3">
      <path d="M 597.5 858  C 634.18 858  663 886.82  663 923.5  C 663 960.18  634.18 989  597.5 989  C 560.82 989  532 960.18  532 923.5  C 532 886.82  560.82 858  597.5 858  Z " fill-rule="nonzero" fill="#ffffff" stroke="none" />
      <path d="M 597.5 858.5  C 633.9 858.5  662.5 887.1  662.5 923.5  C 662.5 959.9  633.9 988.5  597.5 988.5  C 561.1 988.5  532.5 959.9  532.5 923.5  C 532.5 887.1  561.1 858.5  597.5 858.5  Z " stroke-width="1" stroke="#797979" fill="none" />
    </g>
  </defs>
  <g transform="matrix(1 0 0 1 -532 -858 )">
    <use xlink:href="#widget3" filter="url(#filter2)" />
    <use xlink:href="#widget3" />
  </g>
</svg>