<?xml version="1.0" encoding="utf-8"?>
<svg version="1.1" xmlns:xlink="http://www.w3.org/1999/xlink" width="42px" height="46px" xmlns="http://www.w3.org/2000/svg">
  <g transform="matrix(1 0 0 1 -943 -360 )">
    <path d="M 29.2536057692308 34.8978794642857  C 29.9603365384615 34.0678943452381  30.3137019230769 33.0282738095238  30.3137019230769 31.7790178571429  C 30.3137019230769 30.8035714285714  30.2674278846154 29.8880208333333  30.1748798076923 29.0323660714286  C 30.0823317307692 28.1767113095238  29.9056490384615 27.3167782738095  29.6448317307692 26.4525669642857  C 29.3840144230769 25.5883556547619  29.0516826923077 24.8524925595238  28.6478365384615 24.2449776785714  C 28.2439903846154 23.637462797619  27.7055288461539 23.1411830357143  27.0324519230769 22.7561383928571  C 26.359375 22.37109375  25.59375 22.1785714285714  24.7355769230769 22.1785714285714  C 24.6346153846154 22.2470238095238  24.3527644230769 22.4224330357143  23.8900240384615 22.7047991071429  C 23.4272836538462 22.9871651785714  23.0697115384615 23.1968005952381  22.8173076923077 23.3337053571429  C 22.5649038461538 23.4706101190476  22.2241586538462 23.6417410714286  21.7950721153846 23.8470982142857  C 21.3659855769231 24.0524553571429  20.9537259615385 24.1979166666667  20.5582932692308 24.2834821428571  C 20.1628605769231 24.3690476190476  19.7716346153846 24.4118303571429  19.3846153846154 24.4118303571429  C 18.9975961538462 24.4118303571429  18.6063701923077 24.3690476190476  18.2109375 24.2834821428571  C 17.8155048076923 24.1979166666667  17.4032451923077 24.0524553571429  16.9741586538462 23.8470982142857  C 16.5450721153846 23.6417410714286  16.2043269230769 23.4706101190476  15.9519230769231 23.3337053571429  C 15.6995192307692 23.1968005952381  15.3419471153846 22.9871651785714  14.8792067307692 22.7047991071429  C 14.4164663461538 22.4224330357143  14.1346153846154 22.2470238095238  14.0336538461538 22.1785714285714  C 13.1754807692308 22.1785714285714  12.4098557692308 22.37109375  11.7367788461538 22.7561383928571  C 11.0637019230769 23.1411830357143  10.5252403846154 23.637462797619  10.1213942307692 24.2449776785714  C 9.71754807692308 24.8524925595238  9.38521634615385 25.5883556547619  9.12439903846154 26.4525669642857  C 8.86358173076923 27.3167782738095  8.68689903846154 28.1767113095238  8.59435096153846 29.0323660714286  C 8.50180288461539 29.8880208333333  8.45552884615385 30.8035714285714  8.45552884615385 31.7790178571429  C 8.45552884615385 33.0282738095238  8.80889423076923 34.0678943452381  9.515625 34.8978794642857  C 10.2223557692308 35.7278645833333  11.0889423076923 36.1428571428571  12.1153846153846 36  L 26.6538461538462 36  C 27.6802884615385 36.1428571428571  28.546875 35.7278645833333  29.2536057692308 34.8978794642857  Z M 24.0162259615385 21.2287946428571  C 25.3034855769231 19.9281994047619  25.9471153846154 18.3623511904762  25.9471153846154 16.53125  C 25.9471153846154 14.6830357142857  25.3034855769231 13.1086309523809  24.0162259615385 11.8080357142857  C 22.7289663461538 10.5074404761905  21.1850961538462 9.85714285714286  19.3846153846154 9.85714285714286  C 17.5841346153846 9.85714285714286  16.0402644230769 10.5074404761905  14.7530048076923 11.8080357142857  C 13.4657451923077 13.1086309523809  12.8221153846154 14.6830357142857  12.8221153846154 16.53125  C 12.8221153846154 18.3623511904762  13.4657451923077 19.9281994047619  14.7530048076923 21.2287946428571  C 16.0402644230769 22.5293898809524  17.5841346153846 23.1796875  19.3846153846154 23.1796875  C 21.1850961538462 23.1796875  22.7289663461538 22.5293898809524  24.0162259615385 21.2287946428571  Z M 41.7728365384615 29.8024553571429  C 41.9242788461538 29.9564732142857  42 30.1532738095238  42 30.3928571428571  L 42 35.3214285714286  C 42 35.5610119047619  41.9242788461538 35.7578125  41.7728365384615 35.9118303571429  C 41.6213942307692 36.0658482142857  41.4278846153846 36.1428571428571  41.1923076923077 36.1428571428571  L 38.7692307692308 36.1428571428571  L 38.7692307692308 41.8928571428571  C 38.7692307692308 43.0223214285714  38.3737980769231 43.9892113095238  37.5829326923077 44.7935267857143  C 36.7920673076923 45.5978422619048  35.8413461538462 46  34.7307692307692 46  L 4.03846153846154 46  C 2.92788461538462 46  1.97716346153846 45.5978422619048  1.18629807692308 44.7935267857143  C 0.395432692307692 43.9892113095238  0 43.0223214285714  0 41.8928571428571  L 0 4.10714285714286  C 0 2.97767857142857  0.395432692307692 2.01078869047619  1.18629807692308 1.20647321428572  C 1.97716346153846 0.402157738095239  2.92788461538462 0  4.03846153846154 0  L 34.7307692307692 0  C 35.8413461538462 0  36.7920673076923 0.402157738095239  37.5829326923077 1.20647321428572  C 38.3737980769231 2.01078869047619  38.7692307692308 2.97767857142857  38.7692307692308 4.10714285714286  L 38.7692307692308 9.85714285714286  L 41.1923076923077 9.85714285714286  C 41.4278846153846 9.85714285714286  41.6213942307692 9.93415178571428  41.7728365384615 10.0881696428571  C 41.9242788461538 10.2421875  42 10.4389880952381  42 10.6785714285714  L 42 15.6071428571429  C 42 15.8467261904762  41.9242788461538 16.0435267857143  41.7728365384615 16.1975446428571  C 41.6213942307692 16.3515625  41.4278846153846 16.4285714285714  41.1923076923077 16.4285714285714  L 38.7692307692308 16.4285714285714  L 38.7692307692308 19.7142857142857  L 41.1923076923077 19.7142857142857  C 41.4278846153846 19.7142857142857  41.6213942307692 19.7912946428571  41.7728365384615 19.9453125  C 41.9242788461538 20.0993303571429  42 20.2961309523809  42 20.5357142857143  L 42 25.4642857142857  C 42 25.703869047619  41.9242788461538 25.9006696428571  41.7728365384615 26.0546875  C 41.6213942307692 26.2087053571429  41.4278846153846 26.2857142857143  41.1923076923077 26.2857142857143  L 38.7692307692308 26.2857142857143  L 38.7692307692308 29.5714285714286  L 41.1923076923077 29.5714285714286  C 41.4278846153846 29.5714285714286  41.6213942307692 29.6484375  41.7728365384615 29.8024553571429  Z " fill-rule="nonzero" fill="#959292" stroke="none" transform="matrix(1 0 0 1 943 360 )" />
  </g>
</svg>