<?xml version="1.0" encoding="utf-8"?>
<svg version="1.1" xmlns:xlink="http://www.w3.org/1999/xlink" width="76px" height="76px" xmlns="http://www.w3.org/2000/svg">
  <g transform="matrix(1 0 0 1 -532 -496 )">
    <path d="M 570 496  C 591.28 496  608 512.72  608 534  C 608 555.28  591.28 572  570 572  C 548.72 572  532 555.28  532 534  C 532 512.72  548.72 496  570 496  Z " fill-rule="nonzero" fill="#ffffff" stroke="none" />
    <path d="M 570 496.5  C 591 496.5  607.5 513  607.5 534  C 607.5 555  591 571.5  570 571.5  C 549 571.5  532.5 555  532.5 534  C 532.5 513  549 496.5  570 496.5  Z " stroke-width="1" stroke="#797979" fill="none" />
  </g>
</svg>