<?xml version="1.0" encoding="utf-8"?>
<svg version="1.1" xmlns:xlink="http://www.w3.org/1999/xlink" width="61px" height="61px" xmlns="http://www.w3.org/2000/svg">
  <g transform="matrix(1 0 0 1 -689 -1266 )">
    <path d="M 26 27.9583333333333  L 26 38.125  L 35.5833333333333 33.0416666666667  L 26 27.9583333333333  Z M 21 24.8209635416667  L 40 14.654296875  L 40 36.1790364583333  L 21 46.345703125  L 21 24.8209635416667  Z M 49.205078125 41.341796875  C 51.1378038194444 38.0323350694444  52.1041666666667 34.4184027777778  52.1041666666667 30.5  C 52.1041666666667 26.5815972222222  51.1378038194444 22.9676649305556  49.205078125 19.658203125  C 47.2723524305556 16.3487413194444  44.6512586805556 13.7276475694444  41.341796875 11.794921875  C 38.0323350694444 9.86219618055556  34.4184027777778 8.89583333333334  30.5 8.89583333333334  C 26.5815972222222 8.89583333333334  22.9676649305556 9.86219618055556  19.658203125 11.794921875  C 16.3487413194444 13.7276475694444  13.7276475694444 16.3487413194444  11.794921875 19.658203125  C 9.86219618055556 22.9676649305556  8.89583333333333 26.5815972222222  8.89583333333333 30.5  C 8.89583333333333 34.4184027777778  9.86219618055556 38.0323350694444  11.794921875 41.341796875  C 13.7276475694444 44.6512586805556  16.3487413194444 47.2723524305556  19.658203125 49.205078125  C 22.9676649305556 51.1378038194444  26.5815972222222 52.1041666666667  30.5 52.1041666666667  C 34.4184027777778 52.1041666666667  38.0323350694444 51.1378038194444  41.341796875 49.205078125  C 44.6512586805556 47.2723524305556  47.2723524305556 44.6512586805556  49.205078125 41.341796875  Z M 56.9095052083333 15.1904296875  C 59.6365017361111 19.8633897569444  61 24.9665798611111  61 30.5  C 61 36.0334201388889  59.6365017361111 41.1366102430556  56.9095052083333 45.8095703125  C 54.1825086805556 50.4825303819444  50.4825303819444 54.1825086805556  45.8095703125 56.9095052083333  C 41.1366102430556 59.6365017361111  36.0334201388889 61  30.5 61  C 24.9665798611111 61  19.8633897569444 59.6365017361111  15.1904296875 56.9095052083333  C 10.5174696180556 54.1825086805556  6.81749131944445 50.4825303819444  4.09049479166667 45.8095703125  C 1.36349826388889 41.1366102430556  0 36.0334201388889  0 30.5  C 0 24.9665798611111  1.36349826388889 19.8633897569444  4.09049479166667 15.1904296875  C 6.81749131944445 10.5174696180556  10.5174696180556 6.81749131944444  15.1904296875 4.09049479166666  C 19.8633897569444 1.36349826388888  24.9665798611111 0  30.5 0  C 36.0334201388889 0  41.1366102430556 1.36349826388888  45.8095703125 4.09049479166666  C 50.4825303819444 6.81749131944444  54.1825086805556 10.5174696180556  56.9095052083333 15.1904296875  Z " fill-rule="nonzero" fill="#808080" stroke="none" transform="matrix(1 0 0 1 689 1266 )" />
  </g>
</svg>